<svg xmlns="http://www.w3.org/2000/svg" xmlns:xlink="http://www.w3.org/1999/xlink" viewBox="0 0 1621.77 1614.22"><defs><style>.cls-1{mask:url(#mask);}.cls-2,.cls-23,.cls-26{mix-blend-mode:multiply;}.cls-2,.cls-28{fill:url(#linear-gradient);}.cls-3{isolation:isolate;}.cls-4{fill:#736357;}.cls-5{fill:#001333;}.cls-6{fill:#13375b;}.cls-7{fill:#1d2f49;}.cls-8{fill:#39b54a;}.cls-9{fill:#006837;}.cls-10{fill:#f48c7f;}.cls-11{fill:#c7b299;}.cls-12{fill:#998675;}.cls-13{fill:#f7a491;}.cls-14{fill:#f47458;}.cls-15{fill:#b9c5ef;}.cls-16{fill:#a34a3b;}.cls-17{fill:#b75742;}.cls-18{fill:#b3b3b3;}.cls-19{fill:#fff;}.cls-20{fill:#d3d9f4;}.cls-21{fill:#0e283d;}.cls-22{fill:#ced3f1;}.cls-23{fill:#daeef7;}.cls-24,.cls-26{fill:#4e7fc6;}.cls-25{fill:#42210b;}.cls-26,.cls-28{opacity:0.5;}.cls-27{mask:url(#mask-2);}.cls-29{opacity:0.2;}.cls-30{filter:url(#luminosity-noclip-2);}.cls-31{filter:url(#luminosity-noclip);}</style><filter id="luminosity-noclip" x="986.76" y="-9192" width="548.46" height="32766" filterUnits="userSpaceOnUse" color-interpolation-filters="sRGB"><feFlood flood-color="#fff" result="bg"/><feBlend in="SourceGraphic" in2="bg"/></filter><mask id="mask" x="986.76" y="-9192" width="548.46" height="32766" maskUnits="userSpaceOnUse"><g class="cls-31"/></mask><linearGradient id="linear-gradient" x1="986.76" y1="969.9" x2="1535.22" y2="969.9" gradientUnits="userSpaceOnUse"><stop offset="0" stop-color="#fff"/><stop offset="0.06" stop-color="#dadada"/><stop offset="0.16" stop-color="#a7a7a7"/><stop offset="0.26" stop-color="#7b7b7b"/><stop offset="0.37" stop-color="#555"/><stop offset="0.47" stop-color="#363636"/><stop offset="0.59" stop-color="#1e1e1e"/><stop offset="0.71" stop-color="#0d0d0d"/><stop offset="0.84" stop-color="#030303"/><stop offset="1"/></linearGradient><filter id="luminosity-noclip-2" x="986.76" y="763.71" width="548.46" height="412.39" filterUnits="userSpaceOnUse" color-interpolation-filters="sRGB"><feFlood flood-color="#fff" result="bg"/><feBlend in="SourceGraphic" in2="bg"/></filter><mask id="mask-2" x="681.74" y="559.61" width="548.46" height="412.39" maskUnits="userSpaceOnUse"><g class="cls-30"><g transform="translate(-305.03 -204.1)"><g class="cls-1"><polygon class="cls-2" points="986.76 863.74 1085.65 1175.59 1535.22 1176.1 1065 763.71 986.76 863.74"/></g></g></g></mask></defs><g class="cls-3"><g id="Layer_1" data-name="Layer 1"><rect class="cls-4" width="623.65" height="854.15"/><rect class="cls-5" x="36.39" y="36.76" width="550.66" height="779.74"/><rect class="cls-6" x="519.21" y="1009.45" width="19.27" height="604.77"/><rect class="cls-4" x="453.67" y="1329.27" width="321.37" height="488.57" transform="translate(923.69 2943.02) rotate(180)"/><rect class="cls-6" x="453.67" y="1461.9" width="321.37" height="10.33" transform="translate(923.69 2730.04) rotate(180)"/><rect class="cls-6" x="453.67" y="1639.88" width="321.37" height="10.33" transform="translate(923.69 3085.98) rotate(180)"/><rect class="cls-6" x="340.88" y="1329.27" width="112.8" height="488.57" transform="translate(489.52 2943.02) rotate(180)"/><rect class="cls-7" x="330.78" y="1300.15" width="460.76" height="34.23" rx="16.23" transform="translate(817.28 2430.44) rotate(-180)"/><path class="cls-8" d="M2015.68,1277.21" transform="translate(-305.03 -204.1)"/><path class="cls-8" d="M2049.05,1196.39" transform="translate(-305.03 -204.1)"/><path class="cls-9" d="M1938.9,1633.51" transform="translate(-305.03 -204.1)"/><path class="cls-5" d="M1536.46,1212.68H811.83c-8.49,0-15.36-7.45-15.36-16.65h0c0-9.2,6.87-16.65,15.36-16.65h724.63c8.49,0,15.36,7.45,15.36,16.65h0C1551.82,1205.23,1545,1212.68,1536.46,1212.68Z" transform="translate(-305.03 -204.1)"/><path class="cls-6" d="M1790.63,925.9c5-47.22-21.92-90.81-66.23-103.71-2.38-26.35-15.67-51.67-35.83-67.83-39.78-31.87-108.86-44.47-130.87,3.53-33.17,23-56.54,68-42.17,105.39-30.56,38-11.29,99.22,41.35,123.72,3.14,38.85,28,75.27,64.25,88.34,8.71,3.14,22.27,7.36,24.09,8.92-2.37-1.79,33.11,71.24,116,27.78C1845.7,1067.7,1852.74,966.27,1790.63,925.9Z" transform="translate(-305.03 -204.1)"/><path class="cls-5" d="M1668.39,1774h-33a17.66,17.66,0,0,0-17.66,17.65h0a17.66,17.66,0,0,0,17.66,17.65h33a17.65,17.65,0,0,0,17.65-17.65h0A17.65,17.65,0,0,0,1668.39,1774Z" transform="translate(-305.03 -204.1)"/><path class="cls-5" d="M1665.06,1798.32l-31.12-.12c4.11-135.8,7.72-342,.86-353.59a5.16,5.16,0,0,0,2.07,1.55l25.26-6.58c4.08,2.05,6.54,3.29,7.4,61,.43,29.72.27,70.76-.5,122C1667.72,1709.78,1665.09,1797.44,1665.06,1798.32Z" transform="translate(-305.03 -204.1)"/><path class="cls-6" d="M1776.87,1791.67H1527c-11.51,0-20.84,10-20.84,22.43h0a3.79,3.79,0,0,0,3.65,3.92h284.24a3.79,3.79,0,0,0,3.65-3.92h0C1797.71,1801.71,1788.38,1791.67,1776.87,1791.67Z" transform="translate(-305.03 -204.1)"/><path class="cls-10" d="M1334.08,1143.59l165.11-46s34.79-46.73,79.54-109.42c14.64,14.48,22.77,36.74,37.5,51.08l-109.29,120.89a20.88,20.88,0,0,1-15.42,6.88l-151.73.5-51.92,4.14V1138.4Z" transform="translate(-305.03 -204.1)"/><path class="cls-11" d="M1571.78,1108.54s56.67-58.1,71.25-83.34-9.93-8.82-35-15.46c-9.48-2.51-7.08-58.08-25-40-29.41,29.63-66.38,81.44-66.38,81.44Z" transform="translate(-305.03 -204.1)"/><path class="cls-12" d="M1652.35,944.24s50.85-10,74.06,9.35-5,191.77-5,220.35,15.94,109.31,15.94,109.31-154.14,27-178.62-15.92c0,0-7-163.44-5.93-184s23.89-104.61,30.21-113.61S1652.35,944.24,1652.35,944.24Z" transform="translate(-305.03 -204.1)"/><path class="cls-13" d="M1652.67,865.57s.27,1.52.75,4.11c2.3,12.41,11.19,53.59,17.19,64.91,7.25,13.68-24.83,57.31-55.7,52-9.19-1.58,7.76-40.09,6.95-44.16-1.56-7.81-3.68-18.46-5.84-29.38-1.22-6.16-2.46-12.41-3.62-18.28l-6-30.33Z" transform="translate(-305.03 -204.1)"/><path class="cls-14" d="M1653.42,869.68c-.48-2.59-.75-4.11-.75-4.11l-46.27-1.15,6,30.33c1.15,5.84,2.38,12,3.6,18.17,7.14-1,14.6-4.51,22.09-11A58.27,58.27,0,0,0,1654.82,877C1654.25,874.12,1653.77,871.6,1653.42,869.68Z" transform="translate(-305.03 -204.1)"/><path class="cls-10" d="M1467.53,1676.63s46.79,56.1,47.1,61-1.86,58.16-7.42,63-15.41,9.24-10.15,14.73c4,4.15,28,2.37,48.27,1.25,5.91-.32,13.32-47.49,15.66-54.42,3.4-10.07,11.67-32.75,8.58-39.76-1.5-3.42-8.71-10.45-18.86-17-10.69-6.9-51.54-63.74-51.54-63.74Z" transform="translate(-305.03 -204.1)"/><path class="cls-15" d="M1550,1705.11s-31.41,88.46-43.71,92.73c-3.26,1.13-5.22,4-8.18,10.94-.89,2.08,0,9,0,9h51.77s8.29-39,11.56-56.09c0,0,17.33-41.84,15.41-45.65S1550,1705.11,1550,1705.11Z" transform="translate(-305.03 -204.1)"/><path class="cls-13" d="M1187.29,1703.57s-38.21,53.79-34.85,70.81c1.8,9.11,9.82,21,5.22,29.61s-9.86,10.72-9.86,10.72l-119.18,1.92c-6.49.1-2.2-4.07,3-7.91,8.57-6.28,15.48-10.44,42.85-23.65,1.79-.86,8.29-5,10.63-6.42,5.94-3.62,11.91-9.32,17-15,8.56-9.51,46.19-87,46.19-87Z" transform="translate(-305.03 -204.1)"/><path class="cls-15" d="M1085.15,1778.64c31.52,8.07,54.82,2.59,67.85-2.66,3.36,9.51,7.82,21.44,5.46,28.31-2.9,8.42-7,10.33-10.66,10.42-28.79.76-105.46,1.78-127.41,2.07a3.58,3.58,0,0,1-2.79-5.88C1023.05,1804.41,1082.8,1780.07,1085.15,1778.64Z" transform="translate(-305.03 -204.1)"/><path class="cls-16" d="M1325.49,1371.73s47.31,54,59.37,62.55,127.87,221.8,127.87,221.8l-41.25,30.12s-103.5-129-152.1-198.07c-41.1-58.37-26-54.67-50.13-90.19a47.46,47.46,0,0,1,7.26-61.87q3.27-3,7.13-6.19c35.77-29.81,281-63.37,281-63.37l156.84,15.36s-128.14,89.86-132.92,92.25-177,27.5-180.55,27.5S1325.49,1371.73,1325.49,1371.73Z" transform="translate(-305.03 -204.1)"/><path class="cls-17" d="M1737.4,1283.25s26.9,80.71-13.45,118.37-280.09,33.48-359,33.48c0,0-32.28,88.48-35.87,102.83s-160.22,199.68-160.22,199.68l-43-27.5s168.59-327.62,181.74-342,200.88-71.74,247.51-84.9S1737.4,1283.25,1737.4,1283.25Z" transform="translate(-305.03 -204.1)"/><path class="cls-13" d="M1425.46,1138.06l143.16-31.68s51.77-66.52,101.5-123.77c14.63,14.48,22.76,36.73,37.5,51.07l-109.3,120.9c-3.94,4.36-13.13,12.26-19,12.28H1430.62l-51.37-.77v-33.23Z" transform="translate(-305.03 -204.1)"/><path class="cls-11" d="M1663.16,1103s56.67-58.11,71.25-83.35,3.77-67.54-21.27-74.18-105.08,100.15-105.08,100.15Z" transform="translate(-305.03 -204.1)"/><path class="cls-5" d="M1508.33,1443.38l14.45-60.14a97.55,97.55,0,0,1,90.56-74.4l183-7.4,5.64-18.62-189.36,7.65A116,116,0,0,0,1504.9,1379l-15.35,63.9C1494.75,1443.07,1501.09,1443.25,1508.33,1443.38Z" transform="translate(-305.03 -204.1)"/><path class="cls-4" d="M1753.75,1411.35s-251.38,4.3-277.59,0-37.55,28.55-29.72,45.76,29.33,23.86,61,25.43,295.32,9,302.75,2c6.07-5.76,86-279,115.07-378.92a37.68,37.68,0,0,0-25.61-46.69h0a37.72,37.72,0,0,0-46.72,25.25Z" transform="translate(-305.03 -204.1)"/><path class="cls-13" d="M1611.61,767.26s22.63-2.62,36.81,15.76,29.47,75.25-5.76,106.16-70.05-4.08-75.21-41.18S1560.28,765.92,1611.61,767.26Z" transform="translate(-305.03 -204.1)"/><path class="cls-6" d="M1609.08,761.18s30.23,54.07,51.86,56.57S1685.4,849,1685.4,849s-7.73-66.2-29.14-79S1609.08,761.18,1609.08,761.18Z" transform="translate(-305.03 -204.1)"/><path class="cls-13" d="M1655.26,831.33c-1.75,9.6,1.78,18.41,7.91,19.67s12.51-5.5,14.26-15.1-1.77-18.41-7.9-19.67S1657,821.73,1655.26,831.33Z" transform="translate(-305.03 -204.1)"/><path class="cls-18" d="M1083.41,984.35h230.68a15,15,0,0,1,13.91,9.33l71,173.23H1526.2a6.44,6.44,0,0,1,6.44,6.44h0a6.43,6.43,0,0,1-6.44,6.43H1164.26a25.26,25.26,0,0,1-23-14.92l-71.52-159.31A15,15,0,0,1,1083.41,984.35Z" transform="translate(-305.03 -204.1)"/><path class="cls-19" d="M1207.61,1085.22c1.55,7.78,8.34,13,15.16,11.62s11.07-8.77,9.51-16.55-8.34-13-15.16-11.63S1206.05,1077.44,1207.61,1085.22Z" transform="translate(-305.03 -204.1)"/><rect class="cls-6" x="833.87" y="1429.45" width="671.53" height="20.48" transform="translate(2034.24 2675.29) rotate(180)"/><rect class="cls-6" x="1190.3" y="1009.45" width="19.27" height="604.77"/><path class="cls-20" d="M1055.22,822a23.2,23.2,0,1,1-23.2-23.2A23.2,23.2,0,0,1,1055.22,822Z" transform="translate(-305.03 -204.1)"/><path class="cls-17" d="M378.86,1263.05H372.6a6.08,6.08,0,0,1,3.7-1.24H533.07a14.71,14.71,0,0,1,14.85,14.56v9.25a14.7,14.7,0,0,1-14.85,14.55l-155-.05Z" transform="translate(-305.03 -204.1)"/><path class="cls-21" d="M467.86,1261.84a14.07,14.07,0,0,1,14.2,13.93v10.45a14.06,14.06,0,0,1-14.2,13.92H370.27v-2.34h.4l24.81-2.3,5-19.29s-9.68-10.65-10.31-10.93-19.52-1.11-19.52-1.11h-.4v-2.33Z" transform="translate(-305.03 -204.1)"/><path class="cls-22" d="M376.6,1280.92c0-11.27-6-16.74-6-16.74h95.21a12.92,12.92,0,0,1,13,12.79v8a12.91,12.91,0,0,1-13,12.79H370.65S376.6,1295.12,376.6,1280.92Z" transform="translate(-305.03 -204.1)"/><path class="cls-23" d="M478.9,1277v8a12.41,12.41,0,0,1-.38,3.07c-3.21-7.7-9.36-15.12-21.08-17.5-27.35-5.57-86.79-6.4-86.79-6.4h95.21A12.92,12.92,0,0,1,478.9,1277Z" transform="translate(-305.03 -204.1)"/><path class="cls-24" d="M368.52,1232.35h-6.26a7.23,7.23,0,0,1,3.7-1H522.78c8.21,0,14.86,5.17,14.86,11.55v7.34c0,6.38-6.65,11.55-14.86,11.55l-155.07,0Z" transform="translate(-305.03 -204.1)"/><path class="cls-7" d="M457.55,1231.39c7.85,0,14.21,4.95,14.21,11v8.29c0,6.11-6.36,11-14.21,11H359.92v-1.85h.4l24.82-1.83,5-15.3s-9.68-8.46-10.31-8.68-19.53-.88-19.53-.88h-.4v-1.85Z" transform="translate(-305.03 -204.1)"/><path class="cls-22" d="M366.25,1246.53a16.87,16.87,0,0,0-5.94-13.28h95.24c7.21,0,13.05,4.54,13.05,10.15v6.38c0,5.6-5.84,10.15-13.05,10.15H360.31S366.25,1257.8,366.25,1246.53Z" transform="translate(-305.03 -204.1)"/><path class="cls-23" d="M468.6,1243.4v6.38a7.92,7.92,0,0,1-.38,2.43c-3.21-6.11-9.37-12-21.09-13.89-27.36-4.42-86.82-5.07-86.82-5.07h95.24C462.76,1233.25,468.6,1237.79,468.6,1243.4Z" transform="translate(-305.03 -204.1)"/><path class="cls-6" d="M562.87,1216.46h137a10.45,10.45,0,0,1,10.45,10.45v62.77a10.45,10.45,0,0,1-10.45,10.45h-137a10.44,10.44,0,0,1-10.44-10.44v-62.78A10.45,10.45,0,0,1,562.87,1216.46Z" transform="translate(957.76 2312.49) rotate(180)"/><rect class="cls-25" x="568.28" y="1216.46" width="157.94" height="83.67" rx="10.45" transform="translate(989.47 2312.49) rotate(180)"/><path class="cls-26" d="M588.38,1231.44H709a4.91,4.91,0,0,1,4.91,4.91v29.54a4.91,4.91,0,0,1-4.91,4.91H588.38a4.91,4.91,0,0,1-4.91-4.91v-29.54A4.92,4.92,0,0,1,588.38,1231.44Z" transform="translate(992.34 2298.14) rotate(180)"/><path class="cls-14" d="M611.63,1264.57a4.78,4.78,0,0,1-4.79-4.8v-16.43h.07a4.78,4.78,0,0,1,4.72-4.8h2.74a2,2,0,0,1,1.45.61,2,2,0,0,1,0,2.9,2,2,0,0,1-1.45.6H611.7a.63.63,0,0,0-.48.21.66.66,0,0,0-.2.48H611v16.43a.63.63,0,0,0,.2.49.66.66,0,0,0,.48.2h5.48a.66.66,0,0,0,.48-.2.63.63,0,0,0,.2-.49v-16.43a.65.65,0,0,0,0-.27,2,2,0,0,1-.16-.78,2,2,0,0,1,.16-.79,2,2,0,0,1,1.11-1.11,2,2,0,0,1,1.58,0,2.06,2.06,0,0,1,1.12,1.11,5.65,5.65,0,0,1,.26.89,4.32,4.32,0,0,1,.1.95v16.43a4.8,4.8,0,0,1-4.8,4.8Zm5.48-1.37a3.27,3.27,0,0,0,2.42-1,3.32,3.32,0,0,0,1-2.43v-16.43a3.08,3.08,0,0,0-.07-.68,3.51,3.51,0,0,0-.19-.63.67.67,0,0,0-.37-.37.65.65,0,0,0-.26-.06.62.62,0,0,0-.26.06.69.69,0,0,0-.38.37.75.75,0,0,0,0,.26.8.8,0,0,0,0,.26,1.86,1.86,0,0,1,.12.38,2.85,2.85,0,0,1,0,.41v16.43a2.07,2.07,0,0,1-2.06,2.06h-5.48a2,2,0,0,1-2-2.06v-16.43h.07a2,2,0,0,1,.59-1.45,2,2,0,0,1,1.39-.6h2.74a.66.66,0,0,0,.48-.2.65.65,0,0,0,0-1,.62.62,0,0,0-.48-.2H611.7a3.4,3.4,0,0,0-3.42,3.42h-.07v16.43a3.41,3.41,0,0,0,3.42,3.43Z" transform="translate(-305.03 -204.1)"/><path class="cls-14" d="M639,1264.57a2,2,0,0,1-1.46-.6,2,2,0,0,1-.6-1.45v-8.22a.66.66,0,0,0-.2-.48.63.63,0,0,0-.48-.21h-5.48a4.78,4.78,0,0,1-4.79-4.79v-8.22a2.05,2.05,0,1,1,4.1,0v8.22a.63.63,0,0,0,.21.48.66.66,0,0,0,.48.2h5.48a4.81,4.81,0,0,1,4.8,4.8v8.22a2.07,2.07,0,0,1-2.06,2Zm0-1.37a.66.66,0,0,0,.48-.2.63.63,0,0,0,.2-.48v-8.22a3.27,3.27,0,0,0-1-2.42,3.31,3.31,0,0,0-2.42-1h-5.48a2,2,0,0,1-2-2v-8.22a.63.63,0,0,0-.21-.48.68.68,0,0,0-1.16.48v8.22a3.41,3.41,0,0,0,3.42,3.42h5.48a1.94,1.94,0,0,1,1.45.61,2,2,0,0,1,.6,1.45v8.22a.67.67,0,0,0,.2.48A.7.7,0,0,0,639,1263.2Zm2.06-12.78a6.3,6.3,0,0,0-1.38-1.25v-8.57a.68.68,0,0,0-.68-.68.68.68,0,0,0-.69.68v8.22H637v-8.22a2,2,0,0,1,.6-1.45,2,2,0,0,1,1.46-.61,2.08,2.08,0,0,1,2.06,2.06Z" transform="translate(-305.03 -204.1)"/><path class="cls-14" d="M647.25,1248.13a2,2,0,0,1-1.46-.6,2,2,0,0,1-.6-1.45,2,2,0,0,1,2.06-2.06,2,2,0,0,1,1.45.6,2,2,0,0,1,.6,1.46,2,2,0,0,1-2,2.05Zm0,11a2,2,0,0,1-1.46-.6,2.06,2.06,0,1,1,1.46.6Zm0-12.32a.63.63,0,0,0,.48-.21.62.62,0,0,0,.2-.48.76.76,0,0,0-.68-.69.68.68,0,0,0-.69.69.66.66,0,0,0,.2.48A.67.67,0,0,0,647.25,1246.77Zm0,11a.66.66,0,0,0,.48-.2.63.63,0,0,0,0-1,.63.63,0,0,0-.44-.21.67.67,0,0,0-.49.21.68.68,0,0,0,0,1A.7.7,0,0,0,647.25,1257.72Z" transform="translate(-305.03 -204.1)"/><path class="cls-14" d="M664.73,1264.79a2,2,0,0,1-.79-.17.75.75,0,0,0-.26,0H658.2a4.78,4.78,0,0,1-4.79-4.8v-5.47a4.8,4.8,0,0,1,4.79-4.8h5.48a.68.68,0,0,0,.68-.68v-5.48h-.07a.62.62,0,0,0-.2-.48.63.63,0,0,0-.48-.21h-8.15a2.06,2.06,0,0,1,0-4.11h8.22a4.82,4.82,0,0,1,4.73,4.8h.07v5.48a4.8,4.8,0,0,1-4.8,4.79H658.2a.72.72,0,0,0-.69.69v5.47a.64.64,0,0,0,.21.49.66.66,0,0,0,.48.2h5.48a5,5,0,0,1,1,.1,4.48,4.48,0,0,1,.88.27,2.06,2.06,0,0,1,1.28,1.89,2,2,0,0,1-.16.79,1.94,1.94,0,0,1-1.12,1.11A2,2,0,0,1,664.73,1264.79Zm0-1.38a.73.73,0,0,0,.63-.42.86.86,0,0,0,0-.27.8.8,0,0,0,0-.26.67.67,0,0,0-.37-.37,2.78,2.78,0,0,0-.64-.19,2.93,2.93,0,0,0-.67-.07H658.2a2,2,0,0,1-2.05-2.06v-5.47a2.07,2.07,0,0,1,2.05-2.06h5.48a3.41,3.41,0,0,0,3.42-3.42v-5.48H667a3.43,3.43,0,0,0-3.43-3.42h-8.15a.68.68,0,0,0-.48,1.16.66.66,0,0,0,.48.2h8.22a1.91,1.91,0,0,1,1.38.6,2,2,0,0,1,.6,1.45h.07v5.48a2,2,0,0,1-2.05,2H658.2a3.31,3.31,0,0,0-2.42,1,3.27,3.27,0,0,0-1,2.42v5.47a3.41,3.41,0,0,0,3.42,3.43h5.48a2,2,0,0,1,.41,0,2.72,2.72,0,0,1,.38.11A.65.65,0,0,0,664.73,1263.41Z" transform="translate(-305.03 -204.1)"/><path class="cls-14" d="M685.6,1264.57a2,2,0,0,1-1.46-.6,2,2,0,0,1-.6-1.45v-19.18h-.07a.72.72,0,0,0-.69-.69h-8.14a2,2,0,0,1-1.46-.6,2.05,2.05,0,0,1,0-2.9,2,2,0,0,1,1.46-.61h8.22a4.82,4.82,0,0,1,4.73,4.8h.06v19.18a2,2,0,0,1-2,2Zm0-1.37a.66.66,0,0,0,.48-.2.67.67,0,0,0,.2-.48v-19.18h-.07a3.41,3.41,0,0,0-3.42-3.42h-8.15a.68.68,0,0,0-.49,1.16.7.7,0,0,0,.49.2h8.22a1.91,1.91,0,0,1,1.38.6,2,2,0,0,1,.6,1.45h.07v19.18a.68.68,0,0,0,.69.68Z" transform="translate(-305.03 -204.1)"/><rect class="cls-22" x="292.61" y="1072.78" width="6.22" height="6.22" rx="0.78"/><rect class="cls-22" x="309.35" y="1072.78" width="6.22" height="6.22" rx="0.78"/><rect class="cls-22" x="326.08" y="1072.78" width="6.22" height="6.22" rx="0.78"/><rect class="cls-22" x="342.82" y="1072.78" width="6.22" height="6.22" rx="0.78"/><rect class="cls-22" x="359.55" y="1072.78" width="6.22" height="6.22" rx="0.78"/><polyline class="cls-6" points="46.34 816.49 36.39 816.49 36.39 36.76 46.34 36.76"/><rect class="cls-6" x="611.77" y="740.29" width="9.95" height="550.66" transform="translate(1327.33 194.77) rotate(90)"/><rect class="cls-4" x="678.14" y="199.65" width="170.79" height="232.34"/><rect class="cls-6" x="703.41" y="228.87" width="120.25" height="173.89"/><rect class="cls-4" x="904.81" y="366.54" width="270.54" height="232.34"/><rect class="cls-6" x="931.32" y="395.77" width="217.52" height="173.89"/><g class="cls-27"><polygon class="cls-28" points="681.74 659.64 780.62 971.49 1230.19 972 759.98 559.61 681.74 659.64"/></g><path class="cls-17" d="M979.71,1132h8.22a.89.89,0,0,1,.89.89v30.3a.89.89,0,0,1-.89.89h-8.22a.89.89,0,0,1-.89-.89v-30.3A.88.88,0,0,1,979.71,1132Z" transform="translate(1662.62 2091.91) rotate(180)"/><path class="cls-7" d="M889.84,779c6-12.38,14-20.15,23.74-23.12,15-4.57,29.35,3.63,29.5,3.71l4.71-8.11c-.73-.42-18.07-10.31-36.94-4.57-12.33,3.76-22.23,13.17-29.44,28Z" transform="translate(-305.03 -204.1)"/><path class="cls-17" d="M953,740l53.5,35.53a3.13,3.13,0,0,1,.87,4.33l-16,24.14a3.12,3.12,0,0,1-4.33.88L933.5,769.36a3.13,3.13,0,0,1-.88-4.33l16-24.15A3.12,3.12,0,0,1,953,740Z" transform="translate(-305.03 -204.1)"/><path class="cls-4" d="M1055.77,759.79,984.45,867.16a64.45,64.45,0,1,1,71.32-107.37Z" transform="translate(-305.03 -204.1)"/><path class="cls-17" d="M817.56,970.68l52.77-200.59,30.73,8.09L848.29,978.77ZM877.3,782,829.51,963.71l11.81,3.11,47.79-181.67Z" transform="translate(-305.03 -204.1)"/><path class="cls-17" d="M816.25,980.17l30.08-10.27,67,196.29-30.07,10.27Zm24,2.15-11.56,3.95L889.38,1164l11.55-4Z" transform="translate(-305.03 -204.1)"/><path class="cls-7" d="M980.59,874.55l6.74,4.47a.87.87,0,0,0,1.21-.24l79.52-119.73a.87.87,0,0,0-.24-1.21l-6.74-4.47a.87.87,0,0,0-1.21.24L980.35,873.34A.87.87,0,0,0,980.59,874.55Z" transform="translate(-305.03 -204.1)"/><path class="cls-14" d="M812.05,978.63a23.17,23.17,0,1,0,23.17-23.17A23.17,23.17,0,0,0,812.05,978.63Z" transform="translate(-305.03 -204.1)"/><path class="cls-4" d="M838.09,1147.27H1053.6a0,0,0,0,1,0,0v26.12A5.63,5.63,0,0,1,1048,1179H843.71a5.63,5.63,0,0,1-5.63-5.63v-26.12A0,0,0,0,1,838.09,1147.27Z" transform="translate(1586.66 2122.19) rotate(180)"/><rect class="cls-4" y="315.82" width="609.57" height="21.59"/><g class="cls-29"><circle class="cls-20" cx="443.68" cy="155.36" r="68.85"/></g><g class="cls-29"><path class="cls-20" d="M786.73,302.07a68.84,68.84,0,0,1-95.41,95.41,68.84,68.84,0,1,0,95.41-95.41Z" transform="translate(-305.03 -204.1)"/></g><path class="cls-19" d="M429.55,886.54c8.82,0,8.83-13.71,0-13.71s-8.84,13.71,0,13.71Z" transform="translate(-305.03 -204.1)"/><path class="cls-19" d="M580,740.32c8.82,0,8.84-13.71,0-13.71s-8.84,13.71,0,13.71Z" transform="translate(-305.03 -204.1)"/><path class="cls-19" d="M814.79,648.92c8.82,0,8.84-13.7,0-13.7s-8.83,13.7,0,13.7Z" transform="translate(-305.03 -204.1)"/><path class="cls-19" d="M438,345.23c8.82,0,8.84-13.71,0-13.71s-8.83,13.71,0,13.71Z" transform="translate(-305.03 -204.1)"/><path class="cls-19" d="M585.61,461.93c8.82,0,8.84-13.71,0-13.71s-8.83,13.71,0,13.71Z" transform="translate(-305.03 -204.1)"/><path class="cls-19" d="M761.36,911.85c8.83,0,8.84-13.71,0-13.71s-8.83,13.71,0,13.71Z" transform="translate(-305.03 -204.1)"/><path class="cls-19" d="M414.08,657.36c8.82,0,8.84-13.71,0-13.71s-8.83,13.71,0,13.71Z" transform="translate(-305.03 -204.1)"/><path class="cls-19" d="M481.57,739.44c4.07,0,4.08-6.33,0-6.33s-4.08,6.33,0,6.33Z" transform="translate(-305.03 -204.1)"/><path class="cls-19" d="M594.05,649.45c4.07,0,4.08-6.33,0-6.33s-4.08,6.33,0,6.33Z" transform="translate(-305.03 -204.1)"/><path class="cls-19" d="M724.81,756.31c4.07,0,4.08-6.33,0-6.33s-4.08,6.33,0,6.33Z" transform="translate(-305.03 -204.1)"/><path class="cls-19" d="M612.33,943.31c4.07,0,4.08-6.33,0-6.33s-4.08,6.33,0,6.33Z" transform="translate(-305.03 -204.1)"/><path class="cls-19" d="M438,965.8c4.07,0,4.08-6.32,0-6.32s-4.07,6.32,0,6.32Z" transform="translate(-305.03 -204.1)"/><path class="cls-19" d="M477.35,459.64c4.07,0,4.08-6.33,0-6.33s-4.08,6.33,0,6.33Z" transform="translate(-305.03 -204.1)"/><path class="cls-19" d="M595.46,295.14c4.07,0,4.07-6.33,0-6.33s-4.08,6.33,0,6.33Z" transform="translate(-305.03 -204.1)"/><path class="cls-19" d="M848.54,466.67c4.07,0,4.08-6.33,0-6.33s-4.08,6.33,0,6.33Z" transform="translate(-305.03 -204.1)"/><path class="cls-19" d="M691.06,480.73c4.08,0,4.08-6.33,0-6.33s-4.07,6.33,0,6.33Z" transform="translate(-305.03 -204.1)"/><path class="cls-19" d="M720.59,679c4.07,0,4.08-6.33,0-6.33s-4.08,6.33,0,6.33Z" transform="translate(-305.03 -204.1)"/><path class="cls-19" d="M620.76,843.13c5.43,0,5.44-8.44,0-8.44s-5.43,8.44,0,8.44Z" transform="translate(-305.03 -204.1)"/><path class="cls-19" d="M807.76,817.65c3.4,0,3.4-5.28,0-5.28s-3.4,5.28,0,5.28Z" transform="translate(-305.03 -204.1)"/></g></g></svg>